<?xml version="1.0" encoding="utf-8"?>
<!-- Generator: Adobe Illustrator 22.1.0, SVG Export Plug-In . SVG Version: 6.00 Build 0)  -->
<svg version="1.1" id="图层_1" xmlns="http://www.w3.org/2000/svg" xmlns:xlink="http://www.w3.org/1999/xlink" x="0px" y="0px"
	 viewBox="0 0 40 40" style="enable-background:new 0 0 40 40;" xml:space="preserve">
<style type="text/css">
	.st0{fill:#040000;}
</style>
<path class="st0" d="M20.2,0.2C12,0.2,5.3,6.9,5.3,15.1v12.2l0,0v2.2c0,2,1.8,3.6,3.7,3.6c2,0,3.6-1.6,3.6-3.6v-6.3
	c0-2-1.6-3.6-3.6-3.6c-0.6,0-1.1,0.1-1.6,0.4v-5c0-7,5.7-12.8,12.8-12.8s12.8,5.7,12.8,12.8v5c-0.5-0.2-1-0.4-1.6-0.4
	c-2,0-3.6,1.6-3.6,3.6v6.3c0,1.7,1.2,3.1,2.8,3.5c-1.5,2.1-3.6,3.7-6.1,4.6c-0.6,0.2-0.9,0.8-0.6,1.4c0.2,0.4,0.6,0.7,1,0.7
	c0.1,0,0.3,0,0.3,0c3.6-1.3,6.7-3.9,8.4-7.2c0.9-0.6,1.6-1.7,1.6-3l0-0.2l0,0V15.1C35.1,6.9,28.4,0.2,20.2,0.2z"/>
</svg>
